{
   "accessors" : [
      {
         "bufferView" : 2,
         "byteOffset" : 0,
         "componentType" : 5126,
         "count" : 1248,
         "max" : [ 1, 1, 1, 1 ],
         "min" : [ 0, 0.006584956776350737, 0, 1 ],
         "name" : "accessor_color_m0-PolyPaper21_-174056",
         "type" : "VEC4"
      },
      {
         "bufferView" : 0,
         "byteOffset" : 0,
         "componentType" : 5123,
         "count" : 1896,
         "max" : [ 1247 ],
         "min" : [ 0 ],
         "name" : "accessor_indices_0_m0-PolyPaper21_-174056",
         "type" : "SCALAR"
      },
      {
         "bufferView" : 1,
         "byteOffset" : 14976,
         "componentType" : 5126,
         "count" : 1248,
         "max" : [ 0.9995949, 0.9991521, 0.9980394 ],
         "min" : [ -0.9985422, -0.9994881, -0.9975924 ],
         "name" : "accessor_normal_m0-PolyPaper21_-174056",
         "type" : "VEC3"
      },
      {
         "bufferView" : 1,
         "byteOffset" : 0,
         "componentType" : 5126,
         "count" : 1248,
         "max" : [ 0.6393183, 1.28919, -0.344844 ],
         "min" : [ -0.02316451, 0.3770411, -1.206123 ],
         "name" : "accessor_position_m0-PolyPaper21_-174056",
         "type" : "VEC3"
      }
   ],
   "asset" : {
      "copyright" : "Unknown",
      "generator" : "glTF 1-to-2 Upgrader for Google Blocks",
      "version" : "2.0"
   },
   "bufferViews" : [
      {
         "buffer" : 0,
         "byteLength" : 3792,
         "byteOffset" : 0,
         "name" : "ushortBufferView",
         "target" : 34963
      },
      {
         "buffer" : 0,
         "byteLength" : 29952,
         "byteOffset" : 3792,
         "byteStride" : 12,
         "name" : "vec3BufferView",
         "target" : 34962
      },
      {
         "buffer" : 0,
         "byteLength" : 19968,
         "byteOffset" : 33744,
         "byteStride" : 16,
         "name" : "vec4BufferView",
         "target" : 34962
      }
   ],
   "buffers" : [
      {
         "byteLength" : 53712,
         "name" : "model",
         "uri" : "model.bin"
      }
   ],
   "materials" : [
      {
         "alphaMode" : "OPAQUE",
         "doubleSided" : false,
         "name" : "BlocksPaper",
         "pbrMetallicRoughness" : {
            "baseColorFactor" : [ 1, 1, 1, 1 ],
            "metallicFactor" : 0,
            "roughnessFactor" : 0.6
         }
      },
      {
         "alphaMode" : "BLEND",
         "doubleSided" : false,
         "name" : "BlocksGlass",
         "pbrMetallicRoughness" : {
            "baseColorFactor" : [ 0.2, 0.2, 1, 0.3 ],
            "metallicFactor" : 1,
            "roughnessFactor" : 0.4
         }
      },
      {
         "alphaMode" : "OPAQUE",
         "doubleSided" : true,
         "name" : "BlocksGem",
         "pbrMetallicRoughness" : {
            "baseColorFactor" : [ 1, 0.4, 1, 1 ],
            "metallicFactor" : 0,
            "roughnessFactor" : 0.1
         }
      }
   ],
   "meshes" : [
      {
         "name" : "mesh_m0-PolyPaper21_-174056",
         "primitives" : [
            {
               "attributes" : {
                  "COLOR_0" : 0,
                  "NORMAL" : 2,
                  "POSITION" : 3
               },
               "indices" : 1,
               "material" : 0,
               "mode" : 4
            }
         ]
      }
   ],
   "nodes" : [
      {
         "mesh" : 0,
         "name" : "node_MeshObject62876672-PolyPaper21"
      }
   ],
   "scene" : 0,
   "scenes" : [
      {
         "extras" : {},
         "name" : "defaultScene",
         "nodes" : [ 0 ]
      }
   ]
}
